<mxfile host="app.diagrams.net" modified="2024-04-08T11:55:47.366Z" agent="Mozilla/5.0 (Windows NT 10.0; Win64; x64) AppleWebKit/537.36 (KHTML, like Gecko) Chrome/123.0.0.0 Safari/537.36 Edg/123.0.0.0" etag="aV79lbNEVqn8iRVBb6xq" version="24.2.2" type="github">
  <diagram name="第 1 页" id="-bEXV1iYkv8T15Lc8a1U">
    <mxGraphModel dx="1133" dy="748" grid="0" gridSize="10" guides="1" tooltips="1" connect="0" arrows="1" fold="1" page="0" pageScale="1" pageWidth="827" pageHeight="1169" math="1" shadow="0">
      <root>
        <mxCell id="0" />
        <mxCell id="1" parent="0" />
        <mxCell id="A0UPaZDPUTei-wH8WIzl-1" value="&lt;font style=&quot;font-size: 15px;&quot;&gt;$$x$$&lt;/font&gt;" style="rounded=0;whiteSpace=wrap;html=1;fillColor=#dae8fc;strokeColor=#6c8ebf;" parent="1" vertex="1">
          <mxGeometry x="399" y="280" width="30" height="120" as="geometry" />
        </mxCell>
        <mxCell id="A0UPaZDPUTei-wH8WIzl-35" value="" style="rounded=0;whiteSpace=wrap;html=1;dashed=1;fillColor=#fff2cc;strokeColor=#d6b656;" parent="1" vertex="1">
          <mxGeometry x="270" y="310" width="120" height="90" as="geometry" />
        </mxCell>
        <mxCell id="A0UPaZDPUTei-wH8WIzl-38" value="&lt;span style=&quot;font-size: 15px;&quot;&gt;$$A_{2}^{T}$$&lt;/span&gt;" style="rounded=0;whiteSpace=wrap;html=1;fillColor=#ffe6cc;strokeColor=#d79b00;" parent="1" vertex="1">
          <mxGeometry x="310" y="340" width="40" height="30" as="geometry" />
        </mxCell>
        <mxCell id="A0UPaZDPUTei-wH8WIzl-39" value="&lt;span style=&quot;font-size: 15px;&quot;&gt;$$A_{3}^{T}$$&lt;/span&gt;" style="rounded=0;whiteSpace=wrap;html=1;fillColor=#FFE6CC;strokeColor=#d79b00;" parent="1" vertex="1">
          <mxGeometry x="350" y="370" width="40" height="30" as="geometry" />
        </mxCell>
        <mxCell id="A0UPaZDPUTei-wH8WIzl-50" value="" style="group;fillColor=#f8dedd;strokeColor=#b85450;dashed=1;" parent="1" vertex="1" connectable="0">
          <mxGeometry x="170" y="280" width="90" height="120" as="geometry" />
        </mxCell>
        <mxCell id="A0UPaZDPUTei-wH8WIzl-68" value="&lt;span style=&quot;font-size: 15px;&quot;&gt;$$B_{1}^{T}$$&lt;/span&gt;" style="rounded=0;whiteSpace=wrap;html=1;fillColor=#FFAEAB;strokeColor=#b85450;" parent="A0UPaZDPUTei-wH8WIzl-50" vertex="1">
          <mxGeometry width="30" height="40" as="geometry" />
        </mxCell>
        <mxCell id="A0UPaZDPUTei-wH8WIzl-69" value="&lt;span style=&quot;font-size: 15px;&quot;&gt;$$B_{2}^{T}$$&lt;/span&gt;" style="rounded=0;whiteSpace=wrap;html=1;fillColor=#FFAEAB;strokeColor=#b85450;" parent="A0UPaZDPUTei-wH8WIzl-50" vertex="1">
          <mxGeometry x="30" y="40" width="30" height="40" as="geometry" />
        </mxCell>
        <mxCell id="A0UPaZDPUTei-wH8WIzl-70" value="&lt;span style=&quot;font-size: 15px;&quot;&gt;$$B_{3}^{T}$$&lt;/span&gt;" style="rounded=0;whiteSpace=wrap;html=1;fillColor=#FFAEAB;strokeColor=#b85450;" parent="A0UPaZDPUTei-wH8WIzl-50" vertex="1">
          <mxGeometry x="60" y="80" width="30" height="40" as="geometry" />
        </mxCell>
        <mxCell id="A0UPaZDPUTei-wH8WIzl-128" value="&lt;div&gt;&lt;br&gt;&lt;/div&gt;" style="rounded=0;whiteSpace=wrap;html=1;fillColor=#F8DBDA;strokeColor=#b85450;dashed=1;" parent="A0UPaZDPUTei-wH8WIzl-50" vertex="1">
          <mxGeometry y="40" width="30" height="40" as="geometry" />
        </mxCell>
        <mxCell id="A0UPaZDPUTei-wH8WIzl-129" value="&lt;div&gt;&lt;br&gt;&lt;/div&gt;" style="rounded=0;whiteSpace=wrap;html=1;fillColor=#F8DBDA;strokeColor=#b85450;dashed=1;" parent="A0UPaZDPUTei-wH8WIzl-50" vertex="1">
          <mxGeometry x="30" y="80" width="30" height="40" as="geometry" />
        </mxCell>
        <mxCell id="A0UPaZDPUTei-wH8WIzl-130" value="&lt;div&gt;&lt;br&gt;&lt;/div&gt;" style="rounded=0;whiteSpace=wrap;html=1;fillColor=#F8DBDA;strokeColor=#b85450;dashed=1;" parent="A0UPaZDPUTei-wH8WIzl-50" vertex="1">
          <mxGeometry x="30" width="30" height="40" as="geometry" />
        </mxCell>
        <mxCell id="A0UPaZDPUTei-wH8WIzl-131" value="&lt;div&gt;&lt;br&gt;&lt;/div&gt;" style="rounded=0;whiteSpace=wrap;html=1;fillColor=#F8DBDA;strokeColor=#b85450;dashed=1;" parent="A0UPaZDPUTei-wH8WIzl-50" vertex="1">
          <mxGeometry x="60" y="40" width="30" height="40" as="geometry" />
        </mxCell>
        <mxCell id="A0UPaZDPUTei-wH8WIzl-64" value="" style="shape=curlyBracket;whiteSpace=wrap;html=1;rounded=1;flipH=1;labelPosition=right;verticalLabelPosition=middle;align=left;verticalAlign=middle;" parent="1" vertex="1">
          <mxGeometry x="440" y="280" width="20" height="120" as="geometry" />
        </mxCell>
        <mxCell id="A0UPaZDPUTei-wH8WIzl-65" value="&lt;font style=&quot;font-size: 15px;&quot;&gt;$$d$$&lt;/font&gt;" style="text;html=1;align=center;verticalAlign=middle;resizable=0;points=[];autosize=1;strokeColor=none;fillColor=none;" parent="1" vertex="1">
          <mxGeometry x="435" y="325" width="70" height="30" as="geometry" />
        </mxCell>
        <mxCell id="A0UPaZDPUTei-wH8WIzl-67" value="&lt;font style=&quot;font-size: 15px;&quot;&gt;$$A_{1}^{T}$$&lt;/font&gt;" style="rounded=0;whiteSpace=wrap;html=1;fillColor=#ffe6cc;strokeColor=#d79b00;" parent="1" vertex="1">
          <mxGeometry x="270" y="310" width="40" height="30" as="geometry" />
        </mxCell>
        <mxCell id="A0UPaZDPUTei-wH8WIzl-71" value="" style="shape=curlyBracket;whiteSpace=wrap;html=1;rounded=1;labelPosition=left;verticalLabelPosition=middle;align=right;verticalAlign=middle;" parent="1" vertex="1">
          <mxGeometry x="150" y="280" width="10" height="40" as="geometry" />
        </mxCell>
        <mxCell id="A0UPaZDPUTei-wH8WIzl-73" value="$$\frac{d}{n}$$" style="text;html=1;align=center;verticalAlign=middle;resizable=0;points=[];autosize=1;strokeColor=none;fillColor=none;" parent="1" vertex="1">
          <mxGeometry x="90" y="285" width="100" height="30" as="geometry" />
        </mxCell>
        <mxCell id="A0UPaZDPUTei-wH8WIzl-74" value="" style="shape=curlyBracket;whiteSpace=wrap;html=1;rounded=1;flipH=1;labelPosition=right;verticalLabelPosition=middle;align=left;verticalAlign=middle;rotation=-90;size=0.5;" parent="1" vertex="1">
          <mxGeometry x="180" y="250" width="10" height="30" as="geometry" />
        </mxCell>
        <mxCell id="A0UPaZDPUTei-wH8WIzl-76" value="$$\frac{r}{n}$$" style="text;html=1;align=center;verticalAlign=middle;resizable=0;points=[];autosize=1;strokeColor=none;fillColor=none;" parent="1" vertex="1">
          <mxGeometry x="135" y="228" width="100" height="30" as="geometry" />
        </mxCell>
        <mxCell id="A0UPaZDPUTei-wH8WIzl-77" value="&lt;font style=&quot;font-size: 15px;&quot;&gt;$$x$$&lt;/font&gt;" style="rounded=0;whiteSpace=wrap;html=1;fillColor=#dae8fc;strokeColor=#6c8ebf;" parent="1" vertex="1">
          <mxGeometry x="531" y="510" width="39" height="242" as="geometry" />
        </mxCell>
        <mxCell id="A0UPaZDPUTei-wH8WIzl-78" value="" style="rounded=0;whiteSpace=wrap;html=1;dashed=1;fillColor=#fff2cc;strokeColor=#d6b656;" parent="1" vertex="1">
          <mxGeometry x="280" y="590" width="240" height="162" as="geometry" />
        </mxCell>
        <mxCell id="A0UPaZDPUTei-wH8WIzl-80" value="&lt;font style=&quot;font-size: 16px;&quot;&gt;$$A_{4}^{T}$$&lt;/font&gt;" style="rounded=0;whiteSpace=wrap;html=1;fillColor=#FFE6CC;strokeColor=#d79b00;" parent="1" vertex="1">
          <mxGeometry x="400" y="670" width="120" height="82" as="geometry" />
        </mxCell>
        <mxCell id="A0UPaZDPUTei-wH8WIzl-85" value="" style="shape=curlyBracket;whiteSpace=wrap;html=1;rounded=1;flipH=1;labelPosition=right;verticalLabelPosition=middle;align=left;verticalAlign=middle;" parent="1" vertex="1">
          <mxGeometry x="590" y="510" width="20" height="242" as="geometry" />
        </mxCell>
        <mxCell id="A0UPaZDPUTei-wH8WIzl-86" value="&lt;font style=&quot;font-size: 15px;&quot;&gt;$$d$$&lt;/font&gt;" style="text;html=1;align=center;verticalAlign=middle;resizable=0;points=[];autosize=1;strokeColor=none;fillColor=none;" parent="1" vertex="1">
          <mxGeometry x="586" y="616" width="70" height="30" as="geometry" />
        </mxCell>
        <mxCell id="A0UPaZDPUTei-wH8WIzl-87" value="&lt;font style=&quot;font-size: 14px;&quot;&gt;$$A_{3}^{T}$$&lt;/font&gt;" style="rounded=0;whiteSpace=wrap;html=1;fillColor=#ffe6cc;strokeColor=#d79b00;" parent="1" vertex="1">
          <mxGeometry x="340" y="630" width="60" height="40" as="geometry" />
        </mxCell>
        <mxCell id="A0UPaZDPUTei-wH8WIzl-97" value="&lt;font style=&quot;font-size: 12px;&quot;&gt;$$A_{1}^{T}$$&lt;/font&gt;" style="rounded=0;whiteSpace=wrap;html=1;fillColor=#ffe6cc;strokeColor=#d79b00;" parent="1" vertex="1">
          <mxGeometry x="280" y="590" width="30" height="20" as="geometry" />
        </mxCell>
        <mxCell id="A0UPaZDPUTei-wH8WIzl-98" value="&lt;font style=&quot;font-size: 12px;&quot;&gt;$$A_{2}^{T}$$&lt;/font&gt;" style="rounded=0;whiteSpace=wrap;html=1;fillColor=#ffe6cc;strokeColor=#d79b00;" parent="1" vertex="1">
          <mxGeometry x="310" y="610" width="30" height="20" as="geometry" />
        </mxCell>
        <mxCell id="A0UPaZDPUTei-wH8WIzl-113" value="" style="rounded=0;whiteSpace=wrap;html=1;dashed=1;fillColor=#F8DBDA;strokeColor=#b85450;rotation=-90;" parent="1" vertex="1">
          <mxGeometry x="60" y="550" width="240" height="162" as="geometry" />
        </mxCell>
        <mxCell id="A0UPaZDPUTei-wH8WIzl-114" value="&lt;span style=&quot;font-size: 16px;&quot;&gt;$$B_{4}^{T}$$&lt;/span&gt;" style="rounded=0;whiteSpace=wrap;html=1;fillColor=#FFAEAB;strokeColor=#b85450;" parent="1" vertex="1">
          <mxGeometry x="180" y="630" width="80" height="122" as="geometry" />
        </mxCell>
        <mxCell id="A0UPaZDPUTei-wH8WIzl-120" value="&lt;span style=&quot;font-size: 14px;&quot;&gt;$$B_{3}^{T}$$&lt;/span&gt;" style="rounded=0;whiteSpace=wrap;html=1;fillColor=#FFAEAB;strokeColor=#b85450;" parent="1" vertex="1">
          <mxGeometry x="140" y="570" width="40" height="60" as="geometry" />
        </mxCell>
        <mxCell id="A0UPaZDPUTei-wH8WIzl-121" value="&lt;br&gt;$$B_{2}^{T}$$&lt;div&gt;&lt;br&gt;&lt;/div&gt;" style="rounded=0;whiteSpace=wrap;html=1;fillColor=#FFAEAB;strokeColor=#b85450;" parent="1" vertex="1">
          <mxGeometry x="120" y="540" width="20" height="30" as="geometry" />
        </mxCell>
        <mxCell id="A0UPaZDPUTei-wH8WIzl-122" value="&lt;br&gt;&lt;span style=&quot;color: rgb(0, 0, 0); font-family: Helvetica; font-size: 12px; font-style: normal; font-variant-ligatures: normal; font-variant-caps: normal; font-weight: 400; letter-spacing: normal; orphans: 2; text-align: center; text-indent: 0px; text-transform: none; widows: 2; word-spacing: 0px; -webkit-text-stroke-width: 0px; white-space: normal; background-color: rgb(251, 251, 251); text-decoration-thickness: initial; text-decoration-style: initial; text-decoration-color: initial; display: inline !important; float: none;&quot;&gt;$$B_{1}^{T}$$&lt;/span&gt;&lt;div&gt;&lt;br/&gt;&lt;/div&gt;" style="rounded=0;whiteSpace=wrap;html=1;fillColor=#FFAEAB;strokeColor=#b85450;shadow=0;" parent="1" vertex="1">
          <mxGeometry x="100" y="510" width="20" height="30" as="geometry" />
        </mxCell>
        <mxCell id="A0UPaZDPUTei-wH8WIzl-124" value="&lt;div&gt;&lt;br&gt;&lt;/div&gt;" style="rounded=0;whiteSpace=wrap;html=1;fillColor=#F8DBDA;strokeColor=#b85450;dashed=1;" parent="1" vertex="1">
          <mxGeometry x="120" y="510" width="20" height="30" as="geometry" />
        </mxCell>
        <mxCell id="A0UPaZDPUTei-wH8WIzl-125" value="&lt;div&gt;&lt;br&gt;&lt;/div&gt;" style="rounded=0;whiteSpace=wrap;html=1;fillColor=#F8DBDA;strokeColor=#b85450;dashed=1;" parent="1" vertex="1">
          <mxGeometry x="100" y="540" width="20" height="30" as="geometry" />
        </mxCell>
        <mxCell id="A0UPaZDPUTei-wH8WIzl-126" value="&lt;div&gt;&lt;br&gt;&lt;/div&gt;" style="rounded=0;whiteSpace=wrap;html=1;fillColor=#F8DBDA;strokeColor=#b85450;dashed=1;" parent="1" vertex="1">
          <mxGeometry x="140" y="510" width="40" height="60" as="geometry" />
        </mxCell>
        <mxCell id="A0UPaZDPUTei-wH8WIzl-127" value="&lt;div&gt;&lt;br&gt;&lt;/div&gt;" style="rounded=0;whiteSpace=wrap;html=1;fillColor=#F8DBDA;strokeColor=#b85450;dashed=1;" parent="1" vertex="1">
          <mxGeometry x="100" y="570" width="40" height="60" as="geometry" />
        </mxCell>
        <mxCell id="A0UPaZDPUTei-wH8WIzl-132" value="" style="rounded=0;whiteSpace=wrap;html=1;dashed=1;fillColor=#fff2cc;strokeColor=#d6b656;" parent="1" vertex="1">
          <mxGeometry x="270" y="340" width="40" height="30" as="geometry" />
        </mxCell>
        <mxCell id="A0UPaZDPUTei-wH8WIzl-133" value="" style="rounded=0;whiteSpace=wrap;html=1;dashed=1;fillColor=#fff2cc;strokeColor=#d6b656;" parent="1" vertex="1">
          <mxGeometry x="270" y="370" width="40" height="30" as="geometry" />
        </mxCell>
        <mxCell id="A0UPaZDPUTei-wH8WIzl-134" value="" style="rounded=0;whiteSpace=wrap;html=1;dashed=1;fillColor=#fff2cc;strokeColor=#d6b656;" parent="1" vertex="1">
          <mxGeometry x="310" y="310" width="40" height="30" as="geometry" />
        </mxCell>
        <mxCell id="A0UPaZDPUTei-wH8WIzl-135" value="" style="rounded=0;whiteSpace=wrap;html=1;dashed=1;fillColor=#fff2cc;strokeColor=#d6b656;" parent="1" vertex="1">
          <mxGeometry x="350" y="340" width="40" height="30" as="geometry" />
        </mxCell>
        <mxCell id="A0UPaZDPUTei-wH8WIzl-136" value="" style="rounded=0;whiteSpace=wrap;html=1;dashed=1;fillColor=#fff2cc;strokeColor=#d6b656;" parent="1" vertex="1">
          <mxGeometry x="280" y="610" width="30" height="20" as="geometry" />
        </mxCell>
        <mxCell id="A0UPaZDPUTei-wH8WIzl-137" value="" style="rounded=0;whiteSpace=wrap;html=1;dashed=1;fillColor=#fff2cc;strokeColor=#d6b656;" parent="1" vertex="1">
          <mxGeometry x="310" y="590" width="30" height="20" as="geometry" />
        </mxCell>
        <mxCell id="A0UPaZDPUTei-wH8WIzl-138" value="" style="rounded=0;whiteSpace=wrap;html=1;dashed=1;fillColor=#fff2cc;strokeColor=#d6b656;" parent="1" vertex="1">
          <mxGeometry x="280" y="630" width="60" height="40" as="geometry" />
        </mxCell>
        <mxCell id="A0UPaZDPUTei-wH8WIzl-139" value="" style="rounded=0;whiteSpace=wrap;html=1;dashed=1;fillColor=#fff2cc;strokeColor=#d6b656;" parent="1" vertex="1">
          <mxGeometry x="340" y="590" width="60" height="40" as="geometry" />
        </mxCell>
        <mxCell id="A0UPaZDPUTei-wH8WIzl-140" value="" style="shape=curlyBracket;whiteSpace=wrap;html=1;rounded=1;flipH=1;labelPosition=right;verticalLabelPosition=middle;align=left;verticalAlign=middle;rotation=-90;size=0.5;" parent="1" vertex="1">
          <mxGeometry x="105" y="487.5" width="10" height="15" as="geometry" />
        </mxCell>
        <mxCell id="A0UPaZDPUTei-wH8WIzl-141" value="" style="shape=curlyBracket;whiteSpace=wrap;html=1;rounded=1;flipH=1;labelPosition=right;verticalLabelPosition=middle;align=left;verticalAlign=middle;rotation=-90;size=0.5;" parent="1" vertex="1">
          <mxGeometry x="125" y="487.5" width="10" height="15" as="geometry" />
        </mxCell>
        <mxCell id="A0UPaZDPUTei-wH8WIzl-142" value="" style="shape=curlyBracket;whiteSpace=wrap;html=1;rounded=1;flipH=1;labelPosition=right;verticalLabelPosition=middle;align=left;verticalAlign=middle;rotation=-90;size=0.5;" parent="1" vertex="1">
          <mxGeometry x="154.38" y="477.5" width="11.25" height="32.5" as="geometry" />
        </mxCell>
        <mxCell id="A0UPaZDPUTei-wH8WIzl-143" value="" style="shape=curlyBracket;whiteSpace=wrap;html=1;rounded=1;flipH=1;labelPosition=right;verticalLabelPosition=middle;align=left;verticalAlign=middle;rotation=-90;size=0.5;" parent="1" vertex="1">
          <mxGeometry x="215" y="455.63" width="10" height="76.25" as="geometry" />
        </mxCell>
        <mxCell id="A0UPaZDPUTei-wH8WIzl-144" value="$$r_{m}$$" style="text;html=1;align=center;verticalAlign=middle;resizable=0;points=[];autosize=1;strokeColor=none;fillColor=none;" parent="1" vertex="1">
          <mxGeometry x="70" y="460" width="80" height="30" as="geometry" />
        </mxCell>
        <mxCell id="A0UPaZDPUTei-wH8WIzl-145" value="$$r_{m}$$" style="text;html=1;align=center;verticalAlign=middle;resizable=0;points=[];autosize=1;strokeColor=none;fillColor=none;" parent="1" vertex="1">
          <mxGeometry x="90" y="460" width="80" height="30" as="geometry" />
        </mxCell>
        <mxCell id="A0UPaZDPUTei-wH8WIzl-146" value="$$2r_{m}$$" style="text;html=1;align=center;verticalAlign=middle;resizable=0;points=[];autosize=1;strokeColor=none;fillColor=none;" parent="1" vertex="1">
          <mxGeometry x="115.01" y="460" width="90" height="30" as="geometry" />
        </mxCell>
        <mxCell id="A0UPaZDPUTei-wH8WIzl-147" value="$$4r_{m}$$" style="text;html=1;align=center;verticalAlign=middle;resizable=0;points=[];autosize=1;strokeColor=none;fillColor=none;" parent="1" vertex="1">
          <mxGeometry x="175" y="460" width="90" height="30" as="geometry" />
        </mxCell>
        <mxCell id="A0UPaZDPUTei-wH8WIzl-150" value="" style="shape=curlyBracket;whiteSpace=wrap;html=1;rounded=1;labelPosition=left;verticalLabelPosition=middle;align=right;verticalAlign=middle;" parent="1" vertex="1">
          <mxGeometry x="80" y="511.88" width="10" height="20" as="geometry" />
        </mxCell>
        <mxCell id="A0UPaZDPUTei-wH8WIzl-151" value="" style="shape=curlyBracket;whiteSpace=wrap;html=1;rounded=1;labelPosition=left;verticalLabelPosition=middle;align=right;verticalAlign=middle;size=0.5;" parent="1" vertex="1">
          <mxGeometry x="80" y="545" width="10" height="20" as="geometry" />
        </mxCell>
        <mxCell id="A0UPaZDPUTei-wH8WIzl-152" value="" style="shape=curlyBracket;whiteSpace=wrap;html=1;rounded=1;labelPosition=left;verticalLabelPosition=middle;align=right;verticalAlign=middle;" parent="1" vertex="1">
          <mxGeometry x="80" y="575" width="10" height="50" as="geometry" />
        </mxCell>
        <mxCell id="A0UPaZDPUTei-wH8WIzl-153" value="" style="shape=curlyBracket;whiteSpace=wrap;html=1;rounded=1;labelPosition=left;verticalLabelPosition=middle;align=right;verticalAlign=middle;" parent="1" vertex="1">
          <mxGeometry x="80" y="637" width="10" height="108" as="geometry" />
        </mxCell>
        <mxCell id="A0UPaZDPUTei-wH8WIzl-154" value="$$d_{m}$$" style="text;html=1;align=center;verticalAlign=middle;resizable=0;points=[];autosize=1;strokeColor=none;fillColor=none;" parent="1" vertex="1">
          <mxGeometry x="25" y="506.88" width="80" height="30" as="geometry" />
        </mxCell>
        <mxCell id="A0UPaZDPUTei-wH8WIzl-155" value="$$d_{m}$$" style="text;html=1;align=center;verticalAlign=middle;resizable=0;points=[];autosize=1;strokeColor=none;fillColor=none;" parent="1" vertex="1">
          <mxGeometry x="25" y="535" width="80" height="30" as="geometry" />
        </mxCell>
        <mxCell id="A0UPaZDPUTei-wH8WIzl-156" value="$$2d_{m}$$" style="text;html=1;align=center;verticalAlign=middle;resizable=0;points=[];autosize=1;strokeColor=none;fillColor=none;" parent="1" vertex="1">
          <mxGeometry x="20" y="580" width="90" height="30" as="geometry" />
        </mxCell>
        <mxCell id="A0UPaZDPUTei-wH8WIzl-157" value="$$4d_{m}$$" style="text;html=1;align=center;verticalAlign=middle;resizable=0;points=[];autosize=1;strokeColor=none;fillColor=none;" parent="1" vertex="1">
          <mxGeometry x="20" y="676" width="90" height="30" as="geometry" />
        </mxCell>
        <mxCell id="A0UPaZDPUTei-wH8WIzl-158" value="" style="shape=flexArrow;endArrow=classic;html=1;rounded=0;fillColor=#f5f5f5;strokeColor=#666666;" parent="1" edge="1">
          <mxGeometry width="50" height="50" relative="1" as="geometry">
            <mxPoint x="324.6" y="100" as="sourcePoint" />
            <mxPoint x="325" y="180" as="targetPoint" />
          </mxGeometry>
        </mxCell>
        <mxCell id="lPXa2ysZEe6wORIYn-SE-2" value="" style="shape=image;verticalLabelPosition=bottom;labelBackgroundColor=default;verticalAlign=top;aspect=fixed;imageAspect=0;image=data:image/png,iVBORw0KGgoAAAANSUhEUgAAAeMAAAAVCAYAAAB1y4aIAAALqklEQVR4Ae3dZ1ubRxYG4PyS3exuNnttS+9xenV6r5te1zWxQ1xxi23cHfca94ZtTMf0agSI3qsoQkhICAlJgAqCZ68z8470gu183g/nw32N9AveMzPPnHPL1NQUJpXJKYQ1E5NTmAhLofAkSHAiKjAxiUBoEn7NeDAMZSwYBhkNRPkCYfj8YXj9ExGe8QmQETI2AbfGNRaCa1QaHg1BcfpCGNLzhuDwBgW7Nwi7J4hBjW0kCMU6EoDVLQ24A7AorgAsrgD6NeZhP5Q+px+9Oj1DfpDuoXHJMQ6TTpdjHF32cXTqdAyOoV2xjaFN02obQ6tVarGOopkMRDUNjEKwjKJR09DvA6nX1Jl9UGrNPtT2+VDT542o7vVCqer1glT2SMYeD4zdHlTolJs8IGVKlweGrhGhtGsEpZ3Stc4RkJIOqbjDDaHdjSJNYbsbhW1SQZsbJL/VFZHX6kJeiwu5mpwWF3KapezmYZCspqjMpmFcbZwuo8EJkq5Jq3dCSa13IrXOiZS6oYjk2iEk6dUMIVFzpcaBK9VSQrUDl6uiLlU5IFQ6cLHSLsRX2hFvlC4Y7SDnK6LOVQzibHnUmbJBkNM6pww2KCcNNpwsteGEzvFrNpBj16w4VmLFb5qjJVYcLZaOFFuhHC4aADlECgdwULDgYIEFBwos2J9P+rFPyevHXsGMPbnS7lwzdueQPuzS/JrdB2VnVi/IjsxebBd6sD2zB9uuSluv9mBrRje2KOnd2CyYsCndhE1pUlyaCXGpJmxM7cKGlKj1KZ1Yn9yJXzTrkjqxLqlDWJvYAbJGaMeaK+1YrVmV0I7YhDbEXpZWXm4DWXGpVVh+qRXLL0rLLrZgWXwLlmqWxLdgyYVm4ecLzfj5fDNizjch5lwTftIsPteExWebsOhso3SmET+eacQP5HSDsPB0A4RTDVhwql6Yf7IeZN6JOmHuiTqQOcdJrfDfY7X4XvmtFt/9VhPx7dEakG+OVuObI9X4mhyuxleHq4QvD1VB+eJQJT4/GPXZgUpIRny6X/pkvxHkP/sqhI/3VoB8tLccH+2RPtxTDvLB7jK8r+wqw/u7yvDeLgPe+9WAdzXv/GrAOztL8TbZUYq3lO3X8Kbmje3X8Po2UiJtLcFrmle3FIO8onl5czFe3lyElzZFzY4rwuy4QrwYV4gXyEalAM9vkJ7bUIDn1hfg2fX5wjO/5IM8/Usenl6Xh6eUtXl4UsjFE2tz8cQa6fE1uXh8dQ4e08xalQMpG4/GZuMRzcMrs6A8tCIL5EEhEw8uz8QDmvuXZeL+ZVdxH1kq3bv0Ku5ZkiHcvSQDd/9M0nEXiUnHnTHpuIU/xvwxpo8yf4z5Y8wfY/4Y88dYfYhp5Y8xeGfMO2PeGfPOmHfGvDPmnTEdUfMxNR9T8zG1PKKmo2o+phZH1HxM3YhFfEwtjqr5mJqPqaP3xnxnLO6N+c44el9M98Z8Z8x3xnxnzHfGfGeshbc4wDUODnDJ8BYHuDjAxQEuGd7iABcHuDjAxWlqTlNzmprT1Jym5jQ1Jak5Tc1Pm+h5Ez9t4qdN6lkTrfy0ST5v4qdN/LSJnzbxO2Px1li9MaaV3xnzO2N6b8zvjPmdMb8z5nfG9NZYvTGmld8Z6xt+0G8OcHGAi5t+iMYf3PSDm35w0w9u+iG6cKnuW7RyBy7ZiYsDXBzgok5c3IGLO3BRFy7uwFWC17kDFzjAxQEuDnBxgIsDXBzg4gAXB7i4NzX3ppb9qbk39WCkLzUHuLg3Nfemlv2puTe1Cm/RyoMieFAED4rgQRE8KIIHRaghEbTyoAgxLIIDXDy1SUxu4qlNPLWJJjfx1Caa3MRTm2hyk5rYRCtPbeKpTTxCURujyCMUeYSiGqPIIxS1MYo8QpFHKPIIRTFGkUcoajONeZ4xzzPmecY8z5hmGvM8Y55n/CQHuDjAxQEuDnCdLhsE4Q5cJmxMjYa3NqR0gTtwcQcu7sClQlwc4OIAFwe4OMDFAS4OcHGAC7NWZePR2GwR3vq/7sDln5iUzT5CkxgPTUYafYhpTcEwRoNyJ+zzqx1xGN7xMDzjExEjYxMgbjI6AZdmmEJbPsnpC0FxeEOw63lCGPQEBZsnCNtIEFbNgDsIxeL2w+KS+l1+mJVhv/j49lH7y2E/ep3jET3aXbBJ3Qnbx9Flp2YeY9LgmJjKRI09Is09bGNQu1/Rg9o6ihZlYBTNmqaBUTRZpEaLDw2kP6qu3wfB7IMYj2j2oabPK1T3eUGqeqMqe73iDbGxxwOlwuSBUm7ygJR1SQaaU9w5glKdko4RkGKlfQRF7fIeuLDdjcI2iSYwySlMbuS3uiGeKbX+Xq9pF7KbXchqGo7IbBpGZuMwMjTpjcNIb5DSGpwgqXVRKXVOJNdOl1TjAEnUXKl2QEmodiChyoHLVfaIS5V2xOsZ7bigOW8cxPkK6br7XmraoTXuOF1mAzlFDJLoK22w4URp1PFSK46VRB0ttoIc0VEds2g9RArV2EO5HigYANlfQMfLFuzT7M23YG+etCfPAmV3bj/ILpLTj52CGTuzzdiRbcb2LNKHbUpmH7YKvdiSIW3O6MXmdNKDTZq4tB4oG1NpN2vChhQT1gu0m+3CumRpbXIX1iZ1Yo2S2InVQgdWJXZg1RUp9koHYhM6sDKhHSsuRy2/3Ibll9qwTLM0vg1L41uFJRdaQWKEFsScb8FPmsXnWrDoXDMWnZV+PNsM8sOZJmHhmSYsPC0tON2IBacaMV8z71Qj5p1sEOaebMDcEw2Yc6IOc47X4XvNd8fr8N2xOnx7rFY6Wotvjtbia3KkRvjqSA2EwzX48nC18MWhapDPD1YJnx2sAvn0AKkUPtlfiY+VfZX4aJ8x4sO9RpAP9lbggz0VeJ/srsB7u8uFd3eVQ3lnVxne3hn11o4ySAa8uV16Y7sB5LVtpcKrW0tBXtlagle2SC9vKQF5aXMxZiubijF7UzFe3FSEF+OK8ILm+bgiPL+xEM+RDYV4VllfgGc0T60vwJPrSL60Nh9PaB5fkwfymGbW6jzMWp2LR1dFPRKbi0dic/BwbA4eIiuVbDy4QnpgRTYeWJ6N+5ZnCfcuywK5Z1km7lmaibuVJZm4S8jAnUsycGeMdEdMBu74KR3/1vxrcTqkNPxzURr+ofn7j6lQ/vZDKsjtQgpuX5iCv2puW5CC2xYk4y9kvvTn+cn407wk4dZ5Sbh1LknEH8mcRPxhTiJuAYApZQqY0kxOAVFTmJyaQli3c575eyI8hZlC4SlcbxKhsBScmIReYGISEaFJBELyg+//nXU8FEaErvuX6gIWKQ4CYYzehC8QhqAVDlRAeG/C45+AoCsqqMAYuQFRZKhiQ7e6xqKFh0uXFhdFyIz/ztEQBF1RQsXJ0EyiNWgIVLDcTLSQCcKuFTGqmFGrKGq0woaKm5lUsWN1B0EG3IHfZXEHILgCsGj6XQHRC1ytZlcA5mFFFkjT+oRrvcKpX7jS66TiKarH6cc0Q3706HQP+TGNww9TxDhU0UWrCOPNXEUhJjurdep+d9jHIQzSyExlDO2DOrYxtM8o1KYVbWp4iH61jqHVOhYt5rSirtkaLepUcadfRaFHxZ5iGRVp/EaxaoXfjOJPFYL1/T7Um4k3os7sxUy1fV7ciCgYez2o0anu9SCix4NqnaqeEehV9oygsjvK2D0CY7dbMrlhnKHC5IZSbnKjvGu6si4XIjpdKNMxdLoQ0TEMQ8cwSm/iWscwrrUTZ0RJuxNCmxMlbU4U30irE8WtThS1Dk1T2DqEiJYhFEzjQEGLptmBgmYH8mfIa3ZAaHIgL8KO3CadRjtyNTmNduhlNwziZrIaBiHU25B5I3U2ZGqu1tkQUWtDRoQVGbVSeq0V09RYka5JqxmAXmr1AGZKqR7ANFUDSBEsSK7SqbQg6Tr9SDL2I/EGrhj7MU2FGQk3Um7G5Ru4VGZGVB8ulfXh4o0Y+nDR0Id4oRfxhl5cIKXX+x8sHcRfBxnbQAAAAABJRU5ErkJggg==;" vertex="1" parent="1">
          <mxGeometry x="120" y="870" width="828" height="36" as="geometry" />
        </mxCell>
        <mxCell id="lPXa2ysZEe6wORIYn-SE-3" value="&lt;font style=&quot;font-size: 16px;&quot;&gt;0&lt;/font&gt;" style="text;html=1;align=center;verticalAlign=middle;resizable=0;points=[];autosize=1;strokeColor=none;fillColor=none;" vertex="1" parent="1">
          <mxGeometry x="115.01" y="1053" width="30" height="30" as="geometry" />
        </mxCell>
        <mxCell id="lPXa2ysZEe6wORIYn-SE-4" value="&lt;font style=&quot;font-size: 16px;&quot;&gt;30&lt;/font&gt;" style="text;html=1;align=center;verticalAlign=middle;resizable=0;points=[];autosize=1;strokeColor=none;fillColor=none;" vertex="1" parent="1">
          <mxGeometry x="515.51" y="1053" width="36" height="31" as="geometry" />
        </mxCell>
        <mxCell id="lPXa2ysZEe6wORIYn-SE-5" value="&lt;font style=&quot;font-size: 16px;&quot;&gt;60&lt;/font&gt;" style="text;html=1;align=center;verticalAlign=middle;resizable=0;points=[];autosize=1;strokeColor=none;fillColor=none;" vertex="1" parent="1">
          <mxGeometry x="924.51" y="1053" width="36" height="31" as="geometry" />
        </mxCell>
        <mxCell id="lPXa2ysZEe6wORIYn-SE-6" value="" style="endArrow=none;html=1;rounded=0;" edge="1" parent="1">
          <mxGeometry width="50" height="50" relative="1" as="geometry">
            <mxPoint x="379.51" y="1081" as="sourcePoint" />
            <mxPoint x="379.51" y="1081" as="targetPoint" />
          </mxGeometry>
        </mxCell>
        <mxCell id="lPXa2ysZEe6wORIYn-SE-8" value="" style="endArrow=none;html=1;rounded=0;" edge="1" parent="1">
          <mxGeometry width="50" height="50" relative="1" as="geometry">
            <mxPoint x="129.41" y="1057" as="sourcePoint" />
            <mxPoint x="129.41" y="1047" as="targetPoint" />
          </mxGeometry>
        </mxCell>
        <mxCell id="lPXa2ysZEe6wORIYn-SE-9" value="" style="endArrow=none;html=1;rounded=0;" edge="1" parent="1">
          <mxGeometry width="50" height="50" relative="1" as="geometry">
            <mxPoint x="533.27" y="1057" as="sourcePoint" />
            <mxPoint x="533.27" y="1047" as="targetPoint" />
          </mxGeometry>
        </mxCell>
        <mxCell id="lPXa2ysZEe6wORIYn-SE-10" value="" style="endArrow=none;html=1;rounded=0;" edge="1" parent="1">
          <mxGeometry width="50" height="50" relative="1" as="geometry">
            <mxPoint x="939.51" y="1057" as="sourcePoint" />
            <mxPoint x="939.51" y="1047" as="targetPoint" />
          </mxGeometry>
        </mxCell>
        <mxCell id="lPXa2ysZEe6wORIYn-SE-13" value="&lt;font style=&quot;font-size: 21px;&quot;&gt;最 终 秩 大 小&amp;nbsp;&lt;/font&gt;" style="text;html=1;align=center;verticalAlign=middle;resizable=0;points=[];autosize=1;strokeColor=none;fillColor=none;" vertex="1" parent="1">
          <mxGeometry x="458.51" y="1075" width="152" height="37" as="geometry" />
        </mxCell>
        <mxCell id="lPXa2ysZEe6wORIYn-SE-14" value="" style="shape=image;verticalLabelPosition=bottom;labelBackgroundColor=default;verticalAlign=top;aspect=fixed;imageAspect=0;image=data:image/png,iVBORw0KGgoAAAANSUhEUgAAA80AAAAuCAYAAAASjvtEAAAUR0lEQVR4Ae3dZVdWaxcF4PNrnn4eu7sTO7HF7o6jYIuK3XWOx8ZuFBUVbEFBUUFFLBBFEEVAyfmOte97w96M9ydMxrjA4cf9bY651r3+An/4BfgF+AX4BfgF+AX4BfgF+AX4BfgF+AX4BfgF/u8X+Mv834qKCojycqWsvAKitKzcUFJWDkNpOUpKy1FcWmb4U1IG8bukDEXFplIUFZei8I9S8LsU4tfvEkN+UQmsfhaWQPwoLEZegfK9oBgi99cfm5z8PxDftOyfvyG+/rD7kleELO3z9yKITFNuITJzC5GhfcophPiYU2D48K0A4r3IVt59/QWRrr398gsi7Uu+kpWPtKx8vNFef/4J8UpLzfwJU0rGD4iX2otPPyCef8wzJH/Mg+FDHpI/5OGZ9vT9dyRpie++Q8lF4rtcPElXHqfnQiS8VeLf5sCQloP4tBw8eqM8fPMND14r919/g7j3ypSNe6+ycTdVuZOaDXE75ashLuUrDC+/Ila79eILxM3nyo3nX2BIzsKN5CzEaNefZUFc064+/QwRLZKUK0mZEJcTlajETIhLTzKUxxm49DgDF7ULCRkQ5xM+4Vy83dlHHyHOaKcffoQ4pZ188AFWJ+5/gDh+7z2OaZF338Pq6J13EEe0w7ffQRy6na7EpeNQXDoOxqXjQKyyP/YtxH+3lH0330JJw76bafj3hvLPjTSIvTHKnpg3MFx/g93armuvIXZqO66+htX26FcQ264oW6+8gthyORWbTVGp2ByVik1RKYaNl1IgNmjrL6ZAeYn1F19i3QVl7fmXEBHnX2DNObvVZ19ArDr73BB+5jnESm3F6WRYLT+VjGXa0pPPIJacsFt8/CnEIi3s2FOIUFNkEkIjk7AwMgkLjip/H02EmH9EmXckEYbDiZh3OBFzDz0xzDn0BGL2QWXWwceYdUCZeeAxxIz9CYbp+xMgpv1nN3VfPMQUbfK/8RCT/nmEiaa9jzBx7yNM0MbveQgxThu7+yGUBxi7+wHG7FJG73qAUTuVkJ33YdhxHyE77mPkdmXE9nsQw7cpw7bdgxi61XQXQ7fexZAtdzFYG7T5DkSwadMdBG+6g4HagI23IfpvUPptuA3D+jj01fqsi4PorfVaGwvR0xQRi54RsegRccvQfc0tiG5a0OqbCFqldF11E6JLuNI5/AZEp5V2HVfEQHTQ2i+PQTut7bLrsGqz9DpE6yXXDK2WXINoudiuxaKrEM0XXUWzMKVpWDQModFoGhqNJlrjhdEQjRZeMTRccAWiwd+my6g/X6k3/zJE3XlKnXlRMMyNQp25Uait1ZpzCaKmVmP2JZgCsy5CuYDALIuZ5xGwOYfAzHMIzDCdRWCGOIPAdNNpBKZbTDuFgM1JBKZZTD2BgOE4AlO1KccQsIlEYEokApNNRxGYbDHpCAKGwwhMquKfdAj+iaaD8E+0mHAAfpv98E/YD//4/6rZB//4ffCPE/9W8w/84/6Bf+zeavbAP3YP/GNMu+EfYzF6F/yVdsI/eif8o3ZUsx3+URYh2+AP2QZfpa3whWyFb6TYom2Gb+Rm+EaYNsE3wmL4RvhsNsA3XBu2Hj7DOviGWQxdC59NBHxDI+AbYloD3xCxWhm8Gr7Bq6oJh29wOHyDTCvhG2QRvAK+4BXwBi+3G7gM3kpL4R24FN4BpiXwDrDovxhewyJ4+1uFwds/DN5+ItSu70J4bRbA23cBvH3+rmY+vH3mw9vbNA/e3qa58PaeC2+vOdXMhrfXbHh6mmbB09Oix0x4Ks2Ap8cMeLpPr2YaPN0tuk2Fx2YKPN2mwBMkJmuT4AmaBE9X00R4ulp0mQCPzXh4ulh0HgdP57F2ncbAYzMank6j4e5oGgV3R4sOIXAbRsLdwTQC7g4j4G5vGg53e4t2w+A2DIW7nUXbIXBXGgx328FwtzENgruNVTDcbYLhbj2wmgFwtx4AdytTf7hbaS37wW3hatkXhhZ94LLpDVeL3nA1N/WCq7mpJ1zNe8LVzNQDrmaiu9K0O1yGbnA1tWgSBJdNV7gad6mmM1yNLRp1gsumI1yNOsLV0NQBrobtlQbt4TK0g6tBOzhN9dvCadMGzvoW9VrDaWgFZz2tbks4bVrAWbcFnHVMzeGsY1G7GZyGpnDWNjWBs3YTOGuZGsNZy6JmIzgNDeGsaVGjAZw29eEMKI5APdjVhSNQFw5/nWpqw+GvDYfPVAsOn+atCYdNDTi8NeDwBKrxw+GxcPvgsPHC4TJ54HAJt+J0w2FwweG0cDjhsHHA4XAYcZmhOVcFZoZmMzDLX4ZmhmaGZoZmhmaGZoZme3C2BGYJzwzNDM22wCwBmqGZoZmhmaGZTTObZjbNRuPMpplNs9k4s2lWbTObZmmb2TSzaWbTzKaZoZmhmaGZoZmhmaGZoZmhmePZthFthmaGZo5nczyb49kcz64a0WZoZmhmaGZoZmhmaGZoZmhmaGZoXq/2mbnTzJ1m7jRzp5k7zdxp5k4zd5qdNbjTzIfA+BCY8RgYHwLjQ2B8CIwPgfXjQ2B8CIwPgfEhsMpHwORBMD4EVtUwm+GZTTObZjbNbJrZNLNpZtPMpplNM5tmNs18PdsIz3w9mw+BMTQzNPP1bPvL2dI6MzQzNDM0MzQzNDM0MzQzNDM0MzQzNKvGma9n8/Vsvp7Nk1O2c1MMzfbALOeneHKKd5p5pxlxvNNs3GrmnWZ1r5l3mtWNZt5pVjeaeaeZd5p5p1luNfNOs/1Gs9xr5p1m3mnmnWbeaeadZhQVl6GouNRQ+KcUouC38ut3CUR+kd3PwhKIH4XFyCtQvhcUQ+T++mOTk/8H4puW/fM3xNcfdl/yipClff5eBJFpyi1EZm4hMjS50cw7zbzTfPLBB5y4r/BOM+80804z7zTzTjPvNPNO83J4gy240wxP92lV2DSzaWbTDD4EVl7Bh8D4EBgfArtnfwQs8u578E4z7zTzTrN6Qbv3Op6c4skpnpziySmenKrabeZDYHwIjDvN9hFtjmdzPJvj2RzPvvOO49nn1Gj2mnMvwPFsjmf3XBsLQ4Qa0e4RcQui+xql25pbEEGrbyJoldJ11U2ILuFK5/AbEJ1W2nVcEQPRQWu/PAbttLbLrsOqzdLrEK2XXDO0WnINouViuxaLrkI0X3QVzcKUpmHRMIRGg00zm2Y2zZaWWRpnNs1VLbM0zmya2TSzaWbTXMamGe/ZNLNpZtOM9RdfgieneHKKJ6eieXKKJ6d4coqhmaG57RC4K/H1bL6e3YChmaG5gKE5NZuhmaGZoXm/CszT9yfYXs6WEe2p++INU/bFQ8gjYHwIjA+B1Zt/GaLuPKXOvCgY5kahztwo1NZqzbkEUVOrMfsSTIFZF6FcQGCWxczzCNicQ2DmOQRmmM4iMEOcQWC66TQC0y2mnULA5iQC0yymnkDAwKaZTTObZk/36ahi2Wdm06xa5raD4W5jGgSOZ3M8m+PZPDnFk1M8OcWTUzw5ZQvODM3caeZOM3eaudPMneaqMW3uNDM0MzQzNDM0MzQzNDM0MzQzNPNOM+80804z7zQbY9pLeaeZO83caeZOM8ezOZ7N8ey7HM/GMY5nczyb49not+E2uNPMneYAd5q508ydZu40V+4zy24zd5q508ydZuPclATn0rJyQwmbZjbNbJrZNLNpZtPMpplNM5tmNs1smlV4ZtPMpplNM5tmNs1smtk0v2fTfPElm2Y2zWyaQ1XL3HhhtBGYGy28goYLFO40c6eZO83caeZOMx8Cq2qcudPMnWY2zWya2TSzaWbTzKaZTTObZjbNbJrZNLNpNsa0OZ5dFZY7Qf2boZmhmaGZoZmhmaGZoZmhmaGZoZmhmaGZoZmhmaEZrsaddVA2A7P8ZWhmaGZoZmhmaGZoZmhmaGZoZmhmaGZoZmhmaGZoZmiuIY+A8SEwPgT2jTvN3GnmTvN67jRjBneaudPMnWbYX84+hsCUSGUyd5q508ydZu40c6e5akybTTObZjbNbJrZNLNpZtPMpplNM5tmNs1smtk0s2lm08ymmU1zBcrLK9g0s2kGm2Y2zWyaE9g0y41m3mmGvJzN17OlYTaxafaHbINg08ymmU0zm2Y2zfXhDNSHvWWuB0egruKvA4dNbTj8teHwmWrB4dO8NeGwqQGHtwYcnkA1fjg8Fm4fHDZeOFwmDxwu4VacbjgMLjicFg4nHDYOOBwOyM9fxm8AFRUVBgnMDM0F+MDQzNB8j6GZoZmh2QjMDM0MzZVhmaHZP2o7m2Y2zWya2TSzaWbTzNAsgZmhOZuhmaHZuNEswXndBWUtx7M5ns3xbI5nczyboZmhmaGZoZmhmaGZoZmhORv3XjE0H2NoZmjez6aZTXM0mvAhMMtYNptmNs3L4GVoZmhmaGZoZmhmaGZoZmg+rgOzBOfIu3ZH77yDOKIdvv0O4tDtdCUuHYfi0nEwLh0HYpX9sW8h/rul7Lv5Fkoa9t1Mw783lH9upEHsjVH2xLyB4fob7NZ2XXsNsVPbcfU1rLZHv4LYdkXZeuUVxJbLqdhsikrF5qhUbIpKMWy8lAKxQVt/MQXKSyM4s2lOwPT9CbaWedp/CZi6L94wZV88xOR/lUn/PMJE095HmLj3ESZo4/c8hBinjd39EMoDjN39AGN2KaN3PcConUrIzvsw7LiPkB33MXK7MmL7PYjh25Rh2+5BDN1quouhW+9iyJa7GKwN2nwHIti06Q6CN93BQG3AxtsQ/TcoDM0MzYGpxxmaR+1Q7bI5mi1/udMM70Bzn1n+LrHrvxhewyJ4+1uFwds/DN5+ItSu70J4bRbA23cBvH3+rmY+vH3mw9vbNA/e3qa58PaeC2+vOdXMhrfXbHh6mmbB09Oix0x4Ks2Ap8cMeLpPr2aaCsvd9d9uU1G1zyz/nqIETYEnaLI2CZ6gSfB0NU2Ep6tFlwnw2IyHp4tF53HwdB5r12kMPDaj4ek0Gu6OplFwd7ToEAK3YSTcHUwj4O4wAu72puFwt7doNwxuw1C421kYYXkI3AzNDM0MzQzNDM0MzQzNDM0zDzw2HgHjySk+BMammaHZz9AMb/By3TCzafYwNDM0N+7M0MzQzNDM0MzQzNDM0MzQzKa5aahqmRmaGZoZmpczNButM5tm1TCzaXYxNMPJ0MzQzNDM0MzQzNDM0MzQzNB8HMZoNsezwdDM0KxGtRmaGZp1w8zQzNDMk1Pq5WwJzu9FtvLu6y+IdO3tl18QaV/ylax8pGXl4432+vNPiFdaauZPmFIyfkC81F58+gHx/GOeIfljHgwf8pD8IQ/PtKfvvyNJS3z3HUouEt/l4km68jg9FyLhrRL/NgeGtBzEp+Xg0Rvl4ZtvePBauf/6G8S9VyaGZoZmhmaGZoZmhmaGZhWWZZ+ZO80cz5b9ZoZmhmaG5qqGuYEOzupGM+80l5WjtKwcJabScpSUlqO4tMzwp6QM4ndJGYqKTaUoKi5F4R+l4HcpxK/fJYb8ohJY/SwsgfhRWIy8AuV7QTFE7q8/Njn5fyC+adk/f0N8/WH3Ja8IWdrn70UQmabcQmTmFiJD+5RTCPExp8DAppmhmaGZoZmhmaGZoZmhmaFZN8yyz8ydZoZmeRCMD4GpXWY2zWya2TSzaZZzUzw59R48OSXBma9n8yEwPgTGnWbuNLNpZmjmeLZ+QZuhmaG5cpeZTTMkOJdp0jKzaS4wRrM5nv0Vt1O+Is708ititVsvvkDcfK7ceP4FhuQs3EjOQox2/VkWxDXt6tPPENEiSbmSlAlxOVGJSsyEuPQkQ3mcgUuPM3BRu5CQAXE+4RPOxdudffQR4ox2+uFHiFPayQcfYHXi/gcINs1smtk0s2lm08ymmU0zm2b72SmOZ7Np5ng2x7MrKlBRoR4BY2hWbTN3mrNxNzUbdzQJzAzN740bzbzT/AJrztmtPvsCYtXZ54bwM88hVmorTifDavmpZCzTlp58BrHkhN3i408hFmlhx55ChJoikxAamYSFkUlYcFT5+2gixPwjyrwjiTAcTsS8w4mYe+iJYc6hJxCzDyqzDj7GrAOKBGaGZoZmhmaGZoZmhmaGZsuNZo5n21tmGdFu1KmajnA16ghXQ1MHuBq2Vxq0h8vQDq4G7eA01W8Lp00bOOtb1GsNp6EVnPW0ui3htGkBZ90WcNYxNYezjkXtZnAamsJZ29QEztpN4KxlagxnLYuajeA0NISzpgWbZoZm7jTzITA2zSnYcMlsmTmeLaPZHM/meDbHszmezfFsjmdzPJvj2a7GXRiaJTwzNDM0MzQzNDM0MzRL28ymWbXM/TfowCx/18ehr9ZnXRxEb63X2liInqaIWPSMiEWPiFuG7mtuQXTTglbfRNAqpeuqmxBdwpXO4TcgOq2067giBqKD1n55DNppbZddh1WbpdchWi+5Zmi15BpEy8V2LRZdhWi+6CqahSlNw6JhCI0Gm2Y2zWya2TSzaWbTrMKyBGaGZqNxZmhmaGZoZmhmaGZoZmi+jQEbGZolMDM0MzQzNDM0MzQzNDM0W0az2TTD2GfmTjNPTqlbzXw9mw+BmSPafD2b49kcz+Z4NsezOZ7N8WyOZ3M8m02zDs9smtk0s2lm08ymmU0zm2Y2zRzPPoHAVMGmmU0zm2Y2zWya2TSzaQaAv+SX/EjLzKaZTTObZp6c4kNg3GnmeLYazeZ4NkMzQzNDM0MzQzNDM0OzZGWG5txCfMpR2DSzaWbTzKaZTTObZjbNbJr9o3fCHph3wD9qu13INvhDtsFXaSt8IVvhGym2aJvhG7kZvhGmTfCNsBi+ET6bDfAN14ath8+wDr5hFkPXwmcTAd/QCPiGmNbAN0SsVgavhm/wqmrC4RscDt8g00r4BlkEr4AveAW8wQzNDM0MzQzNDM220GzUzfzFL8AvwC/AL8AvwC/AL8AvwC/AL8AvwC/AL8AvUPkF/gc/0daVkQT0fwAAAABJRU5ErkJggg==;" vertex="1" parent="1">
          <mxGeometry x="123.07" y="1008" width="824.93" height="39" as="geometry" />
        </mxCell>
        <mxCell id="lPXa2ysZEe6wORIYn-SE-26" value="&lt;font style=&quot;font-size: 16px;&quot;&gt;0&lt;/font&gt;" style="text;html=1;align=center;verticalAlign=middle;resizable=0;points=[];autosize=1;strokeColor=none;fillColor=none;" vertex="1" parent="1">
          <mxGeometry x="115" y="912" width="30" height="30" as="geometry" />
        </mxCell>
        <mxCell id="lPXa2ysZEe6wORIYn-SE-27" value="&lt;font style=&quot;font-size: 16px;&quot;&gt;12&lt;/font&gt;" style="text;html=1;align=center;verticalAlign=middle;resizable=0;points=[];autosize=1;strokeColor=none;fillColor=none;" vertex="1" parent="1">
          <mxGeometry x="515.5" y="912" width="36" height="31" as="geometry" />
        </mxCell>
        <mxCell id="lPXa2ysZEe6wORIYn-SE-28" value="&lt;font style=&quot;font-size: 16px;&quot;&gt;24&lt;/font&gt;" style="text;html=1;align=center;verticalAlign=middle;resizable=0;points=[];autosize=1;strokeColor=none;fillColor=none;" vertex="1" parent="1">
          <mxGeometry x="924.5" y="912" width="36" height="31" as="geometry" />
        </mxCell>
        <mxCell id="lPXa2ysZEe6wORIYn-SE-29" value="" style="endArrow=none;html=1;rounded=0;" edge="1" parent="1">
          <mxGeometry width="50" height="50" relative="1" as="geometry">
            <mxPoint x="379.5" y="940" as="sourcePoint" />
            <mxPoint x="379.5" y="940" as="targetPoint" />
          </mxGeometry>
        </mxCell>
        <mxCell id="lPXa2ysZEe6wORIYn-SE-30" value="" style="endArrow=none;html=1;rounded=0;" edge="1" parent="1">
          <mxGeometry width="50" height="50" relative="1" as="geometry">
            <mxPoint x="129.4" y="916" as="sourcePoint" />
            <mxPoint x="129.4" y="906" as="targetPoint" />
          </mxGeometry>
        </mxCell>
        <mxCell id="lPXa2ysZEe6wORIYn-SE-31" value="" style="endArrow=none;html=1;rounded=0;" edge="1" parent="1">
          <mxGeometry width="50" height="50" relative="1" as="geometry">
            <mxPoint x="533.26" y="916" as="sourcePoint" />
            <mxPoint x="533.26" y="906" as="targetPoint" />
          </mxGeometry>
        </mxCell>
        <mxCell id="lPXa2ysZEe6wORIYn-SE-32" value="" style="endArrow=none;html=1;rounded=0;" edge="1" parent="1">
          <mxGeometry width="50" height="50" relative="1" as="geometry">
            <mxPoint x="939.5" y="916" as="sourcePoint" />
            <mxPoint x="939.5" y="906" as="targetPoint" />
          </mxGeometry>
        </mxCell>
        <mxCell id="lPXa2ysZEe6wORIYn-SE-33" value="&lt;font style=&quot;font-size: 21px;&quot;&gt;最 终 秩 大 小&amp;nbsp;&lt;/font&gt;" style="text;html=1;align=center;verticalAlign=middle;resizable=0;points=[];autosize=1;strokeColor=none;fillColor=none;" vertex="1" parent="1">
          <mxGeometry x="458.5" y="934" width="152" height="37" as="geometry" />
        </mxCell>
      </root>
    </mxGraphModel>
  </diagram>
</mxfile>
